<svg width="1920" height="1727" viewBox="0 0 1920 1727" fill="none" xmlns="http://www.w3.org/2000/svg">
<path opacity="0.05" fill-rule="evenodd" clip-rule="evenodd" d="M1319.71 17.7539C1324.46 13.2052 1331.58 10.8112 1341.07 10.3324C1358.36 9.37476 1368.2 15.1205 1370.57 27.5694C1381.08 77.6046 1392.61 119.979 1404.82 154.692L1479.07 54.8613C1485.86 45.764 1494.33 40.9759 1504.5 40.4971C1519.42 39.7789 1528.58 46.4822 1532.31 60.607C1540.79 92.4475 1551.64 119.5 1564.52 142.483C1573.34 81.6744 1588.26 37.8637 1609.28 10.8112C1614.36 4.10793 1621.82 0.756326 1631.66 0.27752C1639.46 -0.201285 1646.58 1.47453 1653.02 5.06556C1659.46 8.65661 1662.85 13.2052 1663.53 18.7115C1663.87 23.0207 1662.85 26.6118 1660.14 30.2029C1646.92 47.4398 1636.07 76.4076 1627.25 116.627C1618.77 155.65 1615.72 186.054 1617.76 207.84C1618.43 213.825 1617.08 219.092 1613.69 223.64C1609.62 228.907 1603.51 231.78 1595.72 232.259C1586.9 232.738 1577.74 229.865 1568.93 223.401C1537.39 200.658 1512.3 166.662 1493.99 121.415C1471.95 152.059 1455.68 175.041 1445.17 190.363C1425.16 217.416 1408.21 231.301 1393.97 232.019C1384.81 232.498 1377.01 226.992 1370.23 215.501C1352.94 184.139 1334.29 123.57 1314.28 33.7939C1313.27 27.5694 1314.96 22.0631 1319.71 17.7539ZM2047.71 55.2763C2035.5 40.1519 2017.51 31.0293 1993.42 27.4282C1986.97 26.4679 1980.86 25.9878 1975.09 25.9878C1942.52 25.9878 1916.05 37.9912 1895.35 61.9982C1877.7 82.4041 1868.88 104.971 1868.88 129.698C1868.88 148.183 1874.31 164.028 1885.17 177.231C1897.38 192.356 1915.37 201.478 1939.46 205.079C1945.91 206.04 1952.02 206.52 1957.79 206.52C1990.7 206.52 2017.17 194.516 2037.53 170.51C2055.18 149.864 2064 127.297 2064 102.57C2064 83.8445 2058.57 68.24 2047.71 55.2763ZM2004.95 121.775C2000.2 137.62 1991.72 149.383 1979.16 157.306C1969.32 163.548 1960.16 166.188 1951.68 164.988C1943.53 163.788 1936.75 158.746 1931.66 149.383C1927.58 141.941 1925.55 134.499 1925.55 127.537C1925.55 121.535 1926.23 115.534 1927.92 110.012C1930.98 100.169 1936.75 90.5664 1945.91 81.4438C1957.11 69.6804 1968.98 64.879 1981.2 66.5595C1989.34 67.7598 1996.13 72.8013 2001.22 82.164C2005.29 89.6061 2007.33 97.0483 2007.33 104.01C2007.33 110.252 2006.31 116.254 2004.95 121.775ZM1782.03 27.4282C1805.79 31.0293 1824.11 40.1519 1836.33 55.2763C1847.19 68.24 1852.62 83.8445 1852.62 102.57C1852.62 127.297 1843.8 149.864 1826.15 170.51C1805.79 194.516 1779.32 206.52 1746.4 206.52C1740.64 206.52 1734.53 206.04 1728.08 205.079C1703.99 201.478 1686 192.356 1673.78 177.231C1662.93 164.028 1657.5 148.183 1657.5 129.698C1657.5 104.971 1666.32 82.4041 1683.96 61.9982C1704.66 37.9912 1731.13 25.9878 1763.71 25.9878C1769.48 25.9878 1775.59 26.4679 1782.03 27.4282ZM1767.78 157.306C1780.34 149.383 1788.82 137.62 1793.57 121.775C1795.27 116.254 1795.95 110.252 1795.95 104.01C1795.95 97.0483 1793.91 89.6061 1789.84 82.164C1784.75 72.8013 1777.96 67.7598 1769.82 66.5595C1757.6 64.879 1745.73 69.6804 1734.53 81.4438C1725.36 90.5664 1719.6 100.169 1716.54 110.012C1714.85 115.534 1714.17 121.535 1714.17 127.537C1714.17 134.499 1716.2 141.941 1720.27 149.383C1725.36 158.746 1732.15 163.788 1740.3 164.988C1748.78 166.188 1757.94 163.548 1767.78 157.306Z" fill="white"/>
<path d="M0 617C0 617 584.914 647 960 647C1335.09 647 1920 617 1920 617V1727C1920 1727 1335.09 1697 960 1697C584.914 1697 0 1727 0 1727L0 617Z" fill="#7854F7"/>
<circle cx="460.24" cy="1461.64" r="3.52358" transform="rotate(-180 460.24 1461.64)" fill="#FFBA49"/>
<circle cx="408.561" cy="1461.64" r="3.52358" transform="rotate(-180 408.561 1461.64)" fill="#FFBA49"/>
<circle cx="356.882" cy="1461.64" r="3.52358" transform="rotate(-180 356.882 1461.64)" fill="#FFBA49"/>
<circle cx="305.202" cy="1461.64" r="3.52358" transform="rotate(-180 305.202 1461.64)" fill="#FFBA49"/>
<circle cx="253.523" cy="1461.64" r="3.52358" transform="rotate(-180 253.523 1461.64)" fill="#FFBA49"/>
<circle cx="460.24" cy="1409.96" r="3.52358" transform="rotate(-180 460.24 1409.96)" fill="#FFBA49"/>
<circle cx="408.561" cy="1409.96" r="3.52358" transform="rotate(-180 408.561 1409.96)" fill="#FFBA49"/>
<circle cx="356.882" cy="1409.96" r="3.52358" transform="rotate(-180 356.882 1409.96)" fill="#FFBA49"/>
<circle cx="305.202" cy="1409.96" r="3.52358" transform="rotate(-180 305.202 1409.96)" fill="#FFBA49"/>
<circle cx="253.523" cy="1409.96" r="3.52358" transform="rotate(-180 253.523 1409.96)" fill="#FFBA49"/>
<circle cx="460.24" cy="1358.28" r="3.52358" transform="rotate(-180 460.24 1358.28)" fill="#FFBA49"/>
<circle cx="408.561" cy="1358.28" r="3.52358" transform="rotate(-180 408.561 1358.28)" fill="#FFBA49"/>
<circle cx="356.882" cy="1358.28" r="3.52358" transform="rotate(-180 356.882 1358.28)" fill="#FFBA49"/>
<circle cx="305.202" cy="1358.28" r="3.52358" transform="rotate(-180 305.202 1358.28)" fill="#FFBA49"/>
<circle cx="253.523" cy="1358.28" r="3.52358" transform="rotate(-180 253.523 1358.28)" fill="#FFBA49"/>
<circle cx="460.24" cy="1306.6" r="3.52358" transform="rotate(-180 460.24 1306.6)" fill="#FFBA49"/>
<circle cx="408.561" cy="1306.6" r="3.52358" transform="rotate(-180 408.561 1306.6)" fill="#FFBA49"/>
<circle cx="356.882" cy="1306.6" r="3.52358" transform="rotate(-180 356.882 1306.6)" fill="#FFBA49"/>
<circle cx="305.202" cy="1306.6" r="3.52358" transform="rotate(-180 305.202 1306.6)" fill="#FFBA49"/>
<circle cx="253.523" cy="1306.6" r="3.52358" transform="rotate(-180 253.523 1306.6)" fill="#FFBA49"/>
<circle cx="460.24" cy="1254.92" r="3.52358" transform="rotate(-180 460.24 1254.92)" fill="#FFBA49"/>
<circle cx="408.561" cy="1254.92" r="3.52358" transform="rotate(-180 408.561 1254.92)" fill="#FFBA49"/>
<circle cx="356.882" cy="1254.92" r="3.52358" transform="rotate(-180 356.882 1254.92)" fill="#FFBA49"/>
<circle cx="305.202" cy="1254.92" r="3.52358" transform="rotate(-180 305.202 1254.92)" fill="#FFBA49"/>
<circle cx="253.523" cy="1254.92" r="3.52358" transform="rotate(-180 253.523 1254.92)" fill="#FFBA49"/>
<circle cx="460.24" cy="1203.24" r="3.52358" transform="rotate(-180 460.24 1203.24)" fill="#FFBA49"/>
<circle cx="408.561" cy="1203.24" r="3.52358" transform="rotate(-180 408.561 1203.24)" fill="#FFBA49"/>
<circle cx="356.882" cy="1203.24" r="3.52358" transform="rotate(-180 356.882 1203.24)" fill="#FFBA49"/>
<circle cx="305.202" cy="1203.24" r="3.52358" transform="rotate(-180 305.202 1203.24)" fill="#FFBA49"/>
<circle cx="253.523" cy="1203.24" r="3.52358" transform="rotate(-180 253.523 1203.24)" fill="#FFBA49"/>
<circle cx="460.24" cy="1151.56" r="3.52358" transform="rotate(-180 460.24 1151.56)" fill="#FFBA49"/>
<circle cx="408.561" cy="1151.56" r="3.52358" transform="rotate(-180 408.561 1151.56)" fill="#FFBA49"/>
<circle cx="356.882" cy="1151.56" r="3.52358" transform="rotate(-180 356.882 1151.56)" fill="#FFBA49"/>
<circle cx="305.202" cy="1151.56" r="3.52358" transform="rotate(-180 305.202 1151.56)" fill="#FFBA49"/>
<circle cx="253.523" cy="1151.56" r="3.52358" transform="rotate(-180 253.523 1151.56)" fill="#FFBA49"/>
<circle cx="460.24" cy="1099.88" r="3.52358" transform="rotate(-180 460.24 1099.88)" fill="#FFBA49"/>
<circle cx="408.561" cy="1099.88" r="3.52358" transform="rotate(-180 408.561 1099.88)" fill="#FFBA49"/>
<circle cx="356.882" cy="1099.88" r="3.52358" transform="rotate(-180 356.882 1099.88)" fill="#FFBA49"/>
<circle cx="305.202" cy="1099.88" r="3.52358" transform="rotate(-180 305.202 1099.88)" fill="#FFBA49"/>
<circle cx="253.523" cy="1099.88" r="3.52358" transform="rotate(-180 253.523 1099.88)" fill="#FFBA49"/>
<circle cx="460.24" cy="1048.2" r="3.52358" transform="rotate(-180 460.24 1048.2)" fill="#FFBA49"/>
<circle cx="408.561" cy="1048.2" r="3.52358" transform="rotate(-180 408.561 1048.2)" fill="#FFBA49"/>
<circle cx="356.882" cy="1048.2" r="3.52358" transform="rotate(-180 356.882 1048.2)" fill="#FFBA49"/>
<circle cx="305.202" cy="1048.2" r="3.52358" transform="rotate(-180 305.202 1048.2)" fill="#FFBA49"/>
<circle cx="253.523" cy="1048.2" r="3.52358" transform="rotate(-180 253.523 1048.2)" fill="#FFBA49"/>
<circle cx="460.24" cy="996.524" r="3.52358" transform="rotate(-180 460.24 996.524)" fill="#FFBA49"/>
<circle cx="408.561" cy="996.524" r="3.52358" transform="rotate(-180 408.561 996.524)" fill="#FFBA49"/>
<circle cx="356.882" cy="996.524" r="3.52358" transform="rotate(-180 356.882 996.524)" fill="#FFBA49"/>
<circle cx="305.202" cy="996.524" r="3.52358" transform="rotate(-180 305.202 996.524)" fill="#FFBA49"/>
<circle cx="253.523" cy="996.524" r="3.52358" transform="rotate(-180 253.523 996.524)" fill="#FFBA49"/>
<circle cx="1288.52" cy="1579.24" r="3.52358" transform="rotate(-90 1288.52 1579.24)" fill="#FFBA49"/>
<circle cx="1288.52" cy="1527.56" r="3.52358" transform="rotate(-90 1288.52 1527.56)" fill="#FFBA49"/>
<circle cx="1288.52" cy="1475.88" r="3.52358" transform="rotate(-90 1288.52 1475.88)" fill="#FFBA49"/>
<circle cx="1288.52" cy="1424.2" r="3.52358" transform="rotate(-90 1288.52 1424.2)" fill="#FFBA49"/>
<circle cx="1288.52" cy="1372.52" r="3.52358" transform="rotate(-90 1288.52 1372.52)" fill="#FFBA49"/>
<circle cx="1340.2" cy="1579.24" r="3.52358" transform="rotate(-90 1340.2 1579.24)" fill="#FFBA49"/>
<circle cx="1340.2" cy="1527.56" r="3.52358" transform="rotate(-90 1340.2 1527.56)" fill="#FFBA49"/>
<circle cx="1340.2" cy="1475.88" r="3.52358" transform="rotate(-90 1340.2 1475.88)" fill="#FFBA49"/>
<circle cx="1340.2" cy="1424.2" r="3.52358" transform="rotate(-90 1340.2 1424.2)" fill="#FFBA49"/>
<circle cx="1340.2" cy="1372.52" r="3.52358" transform="rotate(-90 1340.2 1372.52)" fill="#FFBA49"/>
<circle cx="1391.88" cy="1579.24" r="3.52358" transform="rotate(-90 1391.88 1579.24)" fill="#FFBA49"/>
<circle cx="1391.88" cy="1527.56" r="3.52358" transform="rotate(-90 1391.88 1527.56)" fill="#FFBA49"/>
<circle cx="1391.88" cy="1475.88" r="3.52358" transform="rotate(-90 1391.88 1475.88)" fill="#FFBA49"/>
<circle cx="1391.88" cy="1424.2" r="3.52358" transform="rotate(-90 1391.88 1424.2)" fill="#FFBA49"/>
<circle cx="1391.88" cy="1372.52" r="3.52358" transform="rotate(-90 1391.88 1372.52)" fill="#FFBA49"/>
<circle cx="1443.56" cy="1579.24" r="3.52358" transform="rotate(-90 1443.56 1579.24)" fill="#FFBA49"/>
<circle cx="1443.56" cy="1527.56" r="3.52358" transform="rotate(-90 1443.56 1527.56)" fill="#FFBA49"/>
<circle cx="1443.56" cy="1475.88" r="3.52358" transform="rotate(-90 1443.56 1475.88)" fill="#FFBA49"/>
<circle cx="1443.56" cy="1424.2" r="3.52358" transform="rotate(-90 1443.56 1424.2)" fill="#FFBA49"/>
<circle cx="1443.56" cy="1372.52" r="3.52358" transform="rotate(-90 1443.56 1372.52)" fill="#FFBA49"/>
<circle cx="1495.24" cy="1579.24" r="3.52358" transform="rotate(-90 1495.24 1579.24)" fill="#FFBA49"/>
<circle cx="1495.24" cy="1527.56" r="3.52358" transform="rotate(-90 1495.24 1527.56)" fill="#FFBA49"/>
<circle cx="1495.24" cy="1475.88" r="3.52358" transform="rotate(-90 1495.24 1475.88)" fill="#FFBA49"/>
<circle cx="1495.24" cy="1424.2" r="3.52358" transform="rotate(-90 1495.24 1424.2)" fill="#FFBA49"/>
<circle cx="1495.24" cy="1372.52" r="3.52358" transform="rotate(-90 1495.24 1372.52)" fill="#FFBA49"/>
<circle cx="1546.92" cy="1579.24" r="3.52358" transform="rotate(-90 1546.92 1579.24)" fill="#FFBA49"/>
<circle cx="1546.92" cy="1527.56" r="3.52358" transform="rotate(-90 1546.92 1527.56)" fill="#FFBA49"/>
<circle cx="1546.92" cy="1475.88" r="3.52358" transform="rotate(-90 1546.92 1475.88)" fill="#FFBA49"/>
<circle cx="1546.92" cy="1424.2" r="3.52358" transform="rotate(-90 1546.92 1424.2)" fill="#FFBA49"/>
<circle cx="1546.92" cy="1372.52" r="3.52358" transform="rotate(-90 1546.92 1372.52)" fill="#FFBA49"/>
<circle cx="1598.6" cy="1579.24" r="3.52358" transform="rotate(-90 1598.6 1579.24)" fill="#FFBA49"/>
<circle cx="1598.6" cy="1527.56" r="3.52358" transform="rotate(-90 1598.6 1527.56)" fill="#FFBA49"/>
<circle cx="1598.6" cy="1475.88" r="3.52358" transform="rotate(-90 1598.6 1475.88)" fill="#FFBA49"/>
<circle cx="1598.6" cy="1424.2" r="3.52358" transform="rotate(-90 1598.6 1424.2)" fill="#FFBA49"/>
<circle cx="1598.6" cy="1372.52" r="3.52358" transform="rotate(-90 1598.6 1372.52)" fill="#FFBA49"/>
<circle cx="1650.28" cy="1579.24" r="3.52358" transform="rotate(-90 1650.28 1579.24)" fill="#FFBA49"/>
<circle cx="1650.28" cy="1527.56" r="3.52358" transform="rotate(-90 1650.28 1527.56)" fill="#FFBA49"/>
<circle cx="1650.28" cy="1475.88" r="3.52358" transform="rotate(-90 1650.28 1475.88)" fill="#FFBA49"/>
<circle cx="1650.28" cy="1424.2" r="3.52358" transform="rotate(-90 1650.28 1424.2)" fill="#FFBA49"/>
<circle cx="1650.28" cy="1372.52" r="3.52358" transform="rotate(-90 1650.28 1372.52)" fill="#FFBA49"/>
<circle cx="1701.96" cy="1579.24" r="3.52358" transform="rotate(-90 1701.96 1579.24)" fill="#FFBA49"/>
<circle cx="1701.96" cy="1527.56" r="3.52358" transform="rotate(-90 1701.96 1527.56)" fill="#FFBA49"/>
<circle cx="1701.96" cy="1475.88" r="3.52358" transform="rotate(-90 1701.96 1475.88)" fill="#FFBA49"/>
<circle cx="1701.96" cy="1424.2" r="3.52358" transform="rotate(-90 1701.96 1424.2)" fill="#FFBA49"/>
<circle cx="1701.96" cy="1372.52" r="3.52358" transform="rotate(-90 1701.96 1372.52)" fill="#FFBA49"/>
<circle cx="1753.64" cy="1579.24" r="3.52358" transform="rotate(-90 1753.64 1579.24)" fill="#FFBA49"/>
<circle cx="1753.64" cy="1527.56" r="3.52358" transform="rotate(-90 1753.64 1527.56)" fill="#FFBA49"/>
<circle cx="1753.64" cy="1475.88" r="3.52358" transform="rotate(-90 1753.64 1475.88)" fill="#FFBA49"/>
<circle cx="1753.64" cy="1424.2" r="3.52358" transform="rotate(-90 1753.64 1424.2)" fill="#FFBA49"/>
<circle cx="1753.64" cy="1372.52" r="3.52358" transform="rotate(-90 1753.64 1372.52)" fill="#FFBA49"/>
<circle cx="437.5" cy="989.5" r="198" stroke="#FFBA49" stroke-width="5"/>
<circle cx="1572" cy="1284" r="128.5" stroke="#FFBA49" stroke-width="5"/>
<circle cx="249.5" cy="776.5" r="30" stroke="#FFBA49" stroke-width="5"/>
</svg>
