<svg width="1920" height="1110" viewBox="0 0 1920 1110" fill="none" xmlns="http://www.w3.org/2000/svg">
<path d="M0 0C0 0 584.914 30 960 30C1335.09 30 1920 0 1920 0V1110C1920 1110 1335.09 1080 960 1080C584.914 1080 0 1110 0 1110L0 0Z" fill="#7854F7"/>
<circle cx="460.24" cy="844.636" r="3.52358" transform="rotate(-180 460.24 844.636)" fill="#FFBA49"/>
<circle cx="408.561" cy="844.636" r="3.52358" transform="rotate(-180 408.561 844.636)" fill="#FFBA49"/>
<circle cx="356.882" cy="844.636" r="3.52358" transform="rotate(-180 356.882 844.636)" fill="#FFBA49"/>
<circle cx="305.202" cy="844.636" r="3.52358" transform="rotate(-180 305.202 844.636)" fill="#FFBA49"/>
<circle cx="253.523" cy="844.636" r="3.52358" transform="rotate(-180 253.523 844.636)" fill="#FFBA49"/>
<circle cx="460.24" cy="792.957" r="3.52358" transform="rotate(-180 460.24 792.957)" fill="#FFBA49"/>
<circle cx="408.561" cy="792.957" r="3.52358" transform="rotate(-180 408.561 792.957)" fill="#FFBA49"/>
<circle cx="356.882" cy="792.957" r="3.52358" transform="rotate(-180 356.882 792.957)" fill="#FFBA49"/>
<circle cx="305.202" cy="792.957" r="3.52358" transform="rotate(-180 305.202 792.957)" fill="#FFBA49"/>
<circle cx="253.523" cy="792.957" r="3.52358" transform="rotate(-180 253.523 792.957)" fill="#FFBA49"/>
<circle cx="460.24" cy="741.278" r="3.52358" transform="rotate(-180 460.24 741.278)" fill="#FFBA49"/>
<circle cx="408.561" cy="741.278" r="3.52358" transform="rotate(-180 408.561 741.278)" fill="#FFBA49"/>
<circle cx="356.882" cy="741.278" r="3.52358" transform="rotate(-180 356.882 741.278)" fill="#FFBA49"/>
<circle cx="305.202" cy="741.278" r="3.52358" transform="rotate(-180 305.202 741.278)" fill="#FFBA49"/>
<circle cx="253.523" cy="741.278" r="3.52358" transform="rotate(-180 253.523 741.278)" fill="#FFBA49"/>
<circle cx="460.24" cy="689.599" r="3.52358" transform="rotate(-180 460.24 689.599)" fill="#FFBA49"/>
<circle cx="408.561" cy="689.599" r="3.52358" transform="rotate(-180 408.561 689.599)" fill="#FFBA49"/>
<circle cx="356.882" cy="689.599" r="3.52358" transform="rotate(-180 356.882 689.599)" fill="#FFBA49"/>
<circle cx="305.202" cy="689.599" r="3.52358" transform="rotate(-180 305.202 689.599)" fill="#FFBA49"/>
<circle cx="253.523" cy="689.599" r="3.52358" transform="rotate(-180 253.523 689.599)" fill="#FFBA49"/>
<circle cx="460.24" cy="637.92" r="3.52358" transform="rotate(-180 460.24 637.92)" fill="#FFBA49"/>
<circle cx="408.561" cy="637.92" r="3.52358" transform="rotate(-180 408.561 637.92)" fill="#FFBA49"/>
<circle cx="356.882" cy="637.92" r="3.52358" transform="rotate(-180 356.882 637.92)" fill="#FFBA49"/>
<circle cx="305.202" cy="637.92" r="3.52358" transform="rotate(-180 305.202 637.92)" fill="#FFBA49"/>
<circle cx="253.523" cy="637.92" r="3.52358" transform="rotate(-180 253.523 637.92)" fill="#FFBA49"/>
<circle cx="460.24" cy="586.24" r="3.52358" transform="rotate(-180 460.24 586.24)" fill="#FFBA49"/>
<circle cx="408.561" cy="586.24" r="3.52358" transform="rotate(-180 408.561 586.24)" fill="#FFBA49"/>
<circle cx="356.882" cy="586.24" r="3.52358" transform="rotate(-180 356.882 586.24)" fill="#FFBA49"/>
<circle cx="305.202" cy="586.24" r="3.52358" transform="rotate(-180 305.202 586.24)" fill="#FFBA49"/>
<circle cx="253.523" cy="586.24" r="3.52358" transform="rotate(-180 253.523 586.24)" fill="#FFBA49"/>
<circle cx="460.24" cy="534.561" r="3.52358" transform="rotate(-180 460.24 534.561)" fill="#FFBA49"/>
<circle cx="408.561" cy="534.561" r="3.52358" transform="rotate(-180 408.561 534.561)" fill="#FFBA49"/>
<circle cx="356.882" cy="534.561" r="3.52358" transform="rotate(-180 356.882 534.561)" fill="#FFBA49"/>
<circle cx="305.202" cy="534.561" r="3.52358" transform="rotate(-180 305.202 534.561)" fill="#FFBA49"/>
<circle cx="253.523" cy="534.561" r="3.52358" transform="rotate(-180 253.523 534.561)" fill="#FFBA49"/>
<circle cx="460.24" cy="482.882" r="3.52358" transform="rotate(-180 460.24 482.882)" fill="#FFBA49"/>
<circle cx="408.561" cy="482.882" r="3.52358" transform="rotate(-180 408.561 482.882)" fill="#FFBA49"/>
<circle cx="356.882" cy="482.882" r="3.52358" transform="rotate(-180 356.882 482.882)" fill="#FFBA49"/>
<circle cx="305.202" cy="482.882" r="3.52358" transform="rotate(-180 305.202 482.882)" fill="#FFBA49"/>
<circle cx="253.523" cy="482.882" r="3.52358" transform="rotate(-180 253.523 482.882)" fill="#FFBA49"/>
<circle cx="460.24" cy="431.203" r="3.52358" transform="rotate(-180 460.24 431.203)" fill="#FFBA49"/>
<circle cx="408.561" cy="431.203" r="3.52358" transform="rotate(-180 408.561 431.203)" fill="#FFBA49"/>
<circle cx="356.882" cy="431.203" r="3.52358" transform="rotate(-180 356.882 431.203)" fill="#FFBA49"/>
<circle cx="305.202" cy="431.203" r="3.52358" transform="rotate(-180 305.202 431.203)" fill="#FFBA49"/>
<circle cx="253.523" cy="431.203" r="3.52358" transform="rotate(-180 253.523 431.203)" fill="#FFBA49"/>
<circle cx="460.24" cy="379.524" r="3.52358" transform="rotate(-180 460.24 379.524)" fill="#FFBA49"/>
<circle cx="408.561" cy="379.524" r="3.52358" transform="rotate(-180 408.561 379.524)" fill="#FFBA49"/>
<circle cx="356.882" cy="379.524" r="3.52358" transform="rotate(-180 356.882 379.524)" fill="#FFBA49"/>
<circle cx="305.202" cy="379.524" r="3.52358" transform="rotate(-180 305.202 379.524)" fill="#FFBA49"/>
<circle cx="253.523" cy="379.524" r="3.52358" transform="rotate(-180 253.523 379.524)" fill="#FFBA49"/>
<circle cx="1288.52" cy="962.24" r="3.52358" transform="rotate(-90 1288.52 962.24)" fill="#FFBA49"/>
<circle cx="1288.52" cy="910.561" r="3.52358" transform="rotate(-90 1288.52 910.561)" fill="#FFBA49"/>
<circle cx="1288.52" cy="858.882" r="3.52358" transform="rotate(-90 1288.52 858.882)" fill="#FFBA49"/>
<circle cx="1288.52" cy="807.203" r="3.52358" transform="rotate(-90 1288.52 807.203)" fill="#FFBA49"/>
<circle cx="1288.52" cy="755.524" r="3.52358" transform="rotate(-90 1288.52 755.524)" fill="#FFBA49"/>
<circle cx="1340.2" cy="962.241" r="3.52358" transform="rotate(-90 1340.2 962.241)" fill="#FFBA49"/>
<circle cx="1340.2" cy="910.561" r="3.52358" transform="rotate(-90 1340.2 910.561)" fill="#FFBA49"/>
<circle cx="1340.2" cy="858.882" r="3.52358" transform="rotate(-90 1340.2 858.882)" fill="#FFBA49"/>
<circle cx="1340.2" cy="807.203" r="3.52358" transform="rotate(-90 1340.2 807.203)" fill="#FFBA49"/>
<circle cx="1340.2" cy="755.524" r="3.52358" transform="rotate(-90 1340.2 755.524)" fill="#FFBA49"/>
<circle cx="1391.88" cy="962.241" r="3.52358" transform="rotate(-90 1391.88 962.241)" fill="#FFBA49"/>
<circle cx="1391.88" cy="910.561" r="3.52358" transform="rotate(-90 1391.88 910.561)" fill="#FFBA49"/>
<circle cx="1391.88" cy="858.882" r="3.52358" transform="rotate(-90 1391.88 858.882)" fill="#FFBA49"/>
<circle cx="1391.88" cy="807.203" r="3.52358" transform="rotate(-90 1391.88 807.203)" fill="#FFBA49"/>
<circle cx="1391.88" cy="755.524" r="3.52358" transform="rotate(-90 1391.88 755.524)" fill="#FFBA49"/>
<circle cx="1443.56" cy="962.241" r="3.52358" transform="rotate(-90 1443.56 962.241)" fill="#FFBA49"/>
<circle cx="1443.56" cy="910.561" r="3.52358" transform="rotate(-90 1443.56 910.561)" fill="#FFBA49"/>
<circle cx="1443.56" cy="858.882" r="3.52358" transform="rotate(-90 1443.56 858.882)" fill="#FFBA49"/>
<circle cx="1443.56" cy="807.203" r="3.52358" transform="rotate(-90 1443.56 807.203)" fill="#FFBA49"/>
<circle cx="1443.56" cy="755.524" r="3.52358" transform="rotate(-90 1443.56 755.524)" fill="#FFBA49"/>
<circle cx="1495.24" cy="962.241" r="3.52358" transform="rotate(-90 1495.24 962.241)" fill="#FFBA49"/>
<circle cx="1495.24" cy="910.561" r="3.52358" transform="rotate(-90 1495.24 910.561)" fill="#FFBA49"/>
<circle cx="1495.24" cy="858.882" r="3.52358" transform="rotate(-90 1495.24 858.882)" fill="#FFBA49"/>
<circle cx="1495.24" cy="807.203" r="3.52358" transform="rotate(-90 1495.24 807.203)" fill="#FFBA49"/>
<circle cx="1495.24" cy="755.524" r="3.52358" transform="rotate(-90 1495.24 755.524)" fill="#FFBA49"/>
<circle cx="1546.92" cy="962.241" r="3.52358" transform="rotate(-90 1546.92 962.241)" fill="#FFBA49"/>
<circle cx="1546.92" cy="910.561" r="3.52358" transform="rotate(-90 1546.92 910.561)" fill="#FFBA49"/>
<circle cx="1546.92" cy="858.882" r="3.52358" transform="rotate(-90 1546.92 858.882)" fill="#FFBA49"/>
<circle cx="1546.92" cy="807.203" r="3.52358" transform="rotate(-90 1546.92 807.203)" fill="#FFBA49"/>
<circle cx="1546.92" cy="755.524" r="3.52358" transform="rotate(-90 1546.92 755.524)" fill="#FFBA49"/>
<circle cx="1598.6" cy="962.241" r="3.52358" transform="rotate(-90 1598.6 962.241)" fill="#FFBA49"/>
<circle cx="1598.6" cy="910.561" r="3.52358" transform="rotate(-90 1598.6 910.561)" fill="#FFBA49"/>
<circle cx="1598.6" cy="858.882" r="3.52358" transform="rotate(-90 1598.6 858.882)" fill="#FFBA49"/>
<circle cx="1598.6" cy="807.203" r="3.52358" transform="rotate(-90 1598.6 807.203)" fill="#FFBA49"/>
<circle cx="1598.6" cy="755.524" r="3.52358" transform="rotate(-90 1598.6 755.524)" fill="#FFBA49"/>
<circle cx="1650.28" cy="962.241" r="3.52358" transform="rotate(-90 1650.28 962.241)" fill="#FFBA49"/>
<circle cx="1650.28" cy="910.561" r="3.52358" transform="rotate(-90 1650.28 910.561)" fill="#FFBA49"/>
<circle cx="1650.28" cy="858.882" r="3.52358" transform="rotate(-90 1650.28 858.882)" fill="#FFBA49"/>
<circle cx="1650.28" cy="807.203" r="3.52358" transform="rotate(-90 1650.28 807.203)" fill="#FFBA49"/>
<circle cx="1650.28" cy="755.524" r="3.52358" transform="rotate(-90 1650.28 755.524)" fill="#FFBA49"/>
<circle cx="1701.96" cy="962.241" r="3.52358" transform="rotate(-90 1701.96 962.241)" fill="#FFBA49"/>
<circle cx="1701.96" cy="910.561" r="3.52358" transform="rotate(-90 1701.96 910.561)" fill="#FFBA49"/>
<circle cx="1701.96" cy="858.882" r="3.52358" transform="rotate(-90 1701.96 858.882)" fill="#FFBA49"/>
<circle cx="1701.96" cy="807.203" r="3.52358" transform="rotate(-90 1701.96 807.203)" fill="#FFBA49"/>
<circle cx="1701.96" cy="755.524" r="3.52358" transform="rotate(-90 1701.96 755.524)" fill="#FFBA49"/>
<circle cx="1753.64" cy="962.241" r="3.52358" transform="rotate(-90 1753.64 962.241)" fill="#FFBA49"/>
<circle cx="1753.64" cy="910.561" r="3.52358" transform="rotate(-90 1753.64 910.561)" fill="#FFBA49"/>
<circle cx="1753.64" cy="858.882" r="3.52358" transform="rotate(-90 1753.64 858.882)" fill="#FFBA49"/>
<circle cx="1753.64" cy="807.203" r="3.52358" transform="rotate(-90 1753.64 807.203)" fill="#FFBA49"/>
<circle cx="1753.64" cy="755.524" r="3.52358" transform="rotate(-90 1753.64 755.524)" fill="#FFBA49"/>
</svg>
