<svg width="35" height="23" viewBox="0 0 35 23" fill="none" xmlns="http://www.w3.org/2000/svg">
<path fill-rule="evenodd" clip-rule="evenodd" d="M14.7376 2.91994C15.8972 1.76034 17.47 1.10889 19.1099 1.10889C20.7498 1.10889 22.3225 1.76034 23.4821 2.91994C24.6417 4.07953 25.2932 5.65228 25.2932 7.2922C25.2932 8.93212 24.6417 10.5049 23.4821 11.6645L21.8911 13.2555L13.1466 22L4.40207 13.2555L2.81105 11.6645C1.65145 10.5049 1 8.93212 1 7.2922C1 5.65228 1.65145 4.07953 2.81105 2.91994C3.97065 1.76034 5.5434 1.10889 7.18331 1.10889C8.82323 1.10889 10.396 1.76034 11.5556 2.91994L13.1466 4.51095L14.7376 2.91994Z" fill="white" stroke="#272D4E" stroke-width="2" stroke-linecap="round" stroke-linejoin="round"/>
<path d="M31.083 9.03076H33.7271V10.9424H31.083V13.9307H29.0688V10.9424H26.4175V9.03076H29.0688V6.16699H31.083V9.03076Z" fill="#272D4E"/>
</svg>
