<svg width="16" height="14" viewBox="0 0 16 14" fill="none" xmlns="http://www.w3.org/2000/svg">
<path fill-rule="evenodd" clip-rule="evenodd" d="M8.54078 1.99411C9.1773 1.35759 10.0406 1 10.9408 1C11.841 1 12.7043 1.35759 13.3408 1.99411C13.9773 2.63063 14.3349 3.49394 14.3349 4.39411C14.3349 5.29429 13.9773 6.15759 13.3408 6.79411L12.4674 7.66744L7.66745 12.4674L2.86745 7.66744L1.99411 6.79411C1.35759 6.15759 1 5.29429 1 4.39411C1 3.49394 1.35759 2.63063 1.99411 1.99411C2.63063 1.35759 3.49394 1 4.39411 1C5.29429 1 6.15759 1.35759 6.79411 1.99411L7.66745 2.86745L8.54078 1.99411Z" fill="#7854F7" stroke="#7854F7" stroke-width="2" stroke-linecap="round" stroke-linejoin="round"/>
</svg>
